**ABCDEFGHIJKLMNOPQRSTUVWXYZabcdefghijklmnopqrstuvwxyz**************************
**PARASOLID !"#$%&'()*+,-./:;<=>?@[\]^_`{|}~0123456789**************************
**PART1;
MC=AMD64;
MC_MODEL=Intel64 Family 6 Model 60 Stepping 3, GenuineIntel;
MC_ID=unknown;
OS=Windows_NT;
OS_RELEASE=unknown;
FRU=Parasolid Version 30.0, build 226,  7-26-2017;
APPL=SOLIDWORKS 2018-2017284;
SITE=;
USER=unknown;
FORMAT=text;
GUISE=transmit;
KEY=makeProjectedPlanarWire;
FILE=makeProjectedPlanarWire.x_t;
DATE=Sun Jan 14 23:49:13 2018;
**PART2;
SCH=SCH_3000226_30000;
USFLD_SIZE=0;
**PART3;
**END_OF_HEADER*****************************************************************
T51 : TRANSMIT FILE created by modeller version 300022623 SCH_3000226_30000_1300
6205 0 12 33 CCCCCCI4 mesh1006 0 I8 polyline1008 0 CCCCCCCDI5 owner1040 0 CCCCCC
I13 boundary_mesh1006 0 I17 boundary_polyline1008 0 CCCA16 index_map_offset0 0 1
 dA9 index_map82 0 A17 node_id_index_map82 0 A20 schema_embedding_map82 0 A5 chi
ld12 0 A14 lowest_node_id0 0 1 dZ1 57 2 3 0 0 0 0 0 0 1e3 1e-8 0 4 0 1 0 3 1 5 6
 7 8 0 0 9 10 11 0 0 0 0 0 0 81 255 2 2 47 12 1 0 0 0 0 13 0 70 11 CI9 list_type
0 0 1 uI10 notransmit0 0 1 lCCCDCCDI12 finger_index0 0 1 dI12 finger_block1012 0
 CZ3 0 4 T1 0 0 2 20 1 14 14 13 255 5 54 0 1 0 15 0 0 9 15 50 255 6 2 0 15 0 0 0
 +0 .0607937521160588 0 0 -1 0 0 0 -1 30 255 7 22 0 10 16 0 0 +-.15256 .06079375
21160588 .238793 1 0 0 29 255 8 46 0 11 17 0 -.15256 .0607937521160588 .238793 1
9 8 CCCCCCCA5 owner12 0 Z9 53 0 1 0 0 5 V0 16 255 10 21 0 ?18 0 19 7 0 0 1 18 25
5 11 44 0 20 0 21 8 ?1 17 255 20 0 0 0 0 11 22 23 0 24 +18 21 41 0 25 11 26 17 ?
1 17 25 0 27 24 28 21 29 19 0 18 -18 26 38 0 28 21 30 31 ?1 29 17 43 0 21 31 8 .
15256 .0607937521160588 .238793 29 31 40 0 26 32 17 .15256 .0607937521160588 -.2
38793 29 32 37 0 30 33 31 -.15256 .0607937521160588 -.238793 18 30 35 0 22 26 34
 32 ?1 29 33 34 0 34 35 32 .2048002 .0607937521160588 .2910332 18 34 32 0 36 30
 37 33 ?1 29 35 31 0 37 38 33 -.2048002 .0607937521160588 .2910332 18 37 29 0 39
 34 40 35 ?1 29 38 28 0 40 41 35 -.2048002 .0607937521160588 -.2910332 18 40 26
 0 42 37 43 38 ?1 29 41 25 0 43 0 38 .2048002 .0607937521160588 -.2910332 18 43
 23 0 44 40 0 41 ?1 17 44 0 45 42 46 43 36 47 0 48 +15 255 45 5 0 44 15 27 17 42
 0 45 39 44 40 48 49 0 50 +17 46 0 45 44 39 34 51 52 0 0 +17 36 0 0 0 0 34 44 47
 0 46 -16 47 7 0 ?44 49 0 53 0 0 1 17 48 0 0 0 0 43 42 49 0 0 -16 49 9 0 ?42 54
 47 55 0 0 1 16 54 11 0 ?39 52 49 56 0 0 1 30 55 10 0 49 53 56 0 +-.2048002 .060
7937521160588 -.2910332 -1 0 0 30 53 8 0 47 0 55 0 +.2048002 .0607937521160588 .
2910332 0 0 -1 30 56 12 0 54 55 57 0 +-.2048002 .0607937521160588 .2910332 0 0 1
 30 57 14 0 52 56 58 0 +-.2048002 .0607937521160588 .2910332 1 0 0 16 52 13 0 ?4
6 23 54 57 0 0 1 30 58 16 0 23 57 59 0 +-.15256 .0607937521160588 -.238793 0 0 1
 16 23 15 0 ?20 60 52 58 0 0 1 30 59 18 0 60 58 16 0 +-.15256 .0607937521160588
 -.238793 -1 0 0 16 60 17 0 ?61 19 23 59 0 0 1 30 16 20 0 19 59 7 0 +.15256 .060
7937521160588 -.238793 0 0 -1 16 19 19 0 ?29 10 60 16 0 0 1 17 29 0 0 0 0 26 25
 19 0 0 +17 61 0 0 0 0 30 28 60 0 0 +17 28 0 27 25 22 26 61 60 0 29 -15 27 6 0 2
2 15 0 17 22 0 27 28 24 30 20 23 0 61 -17 24 0 27 22 25 11 18 10 0 0 -17 18 0 0
 0 0 21 24 10 0 0 +14 255 15 1 62 ?0 0 45 5 6 -0 0 0 0 5 81 1 62 57 63 15 0 0 0
 0 64 80 255 1 63 65 66 9000 1 1 1 1 1 1 1 1 0 FFFFTFTFFFFFFF1 82 255 1 64 -2096
758377 79 255 14 66 SWEntUnchanged17 39 0 45 46 42 37 50 54 0 51 +17 50 0 0 0 0
 40 39 54 0 0 -17 51 0 0 0 0 37 46 52 0 0 -74 4 CI16 index_map_offset0 0 1 dCCZ2
0 14 2 0 0 2 62 0 0 0 0 0 0 0 0 0 0 0 0 0 0 0 0 0 0 80 2 12 67 68 8004 0 0 0 0 3
 5 0 0 0 FFTFFFFFFFFFFF2 3 83 255 1 13 1 79 16 68 SDL/TYSA_DENSITY1 0 
